<svg width="152" height="21" viewBox="0 0 152 21" fill="none" xmlns="http://www.w3.org/2000/svg">
<path d="M114.374 3.7449C115.228 6.08671 116.054 8.35224 116.88 10.6178C116.923 10.6211 116.966 10.6245 117.01 10.6287C117.18 10.114 117.357 9.6011 117.52 9.08479C117.875 7.95747 118.224 6.82847 118.574 5.69948C118.907 4.62329 119.241 3.54709 119.572 2.47006C119.739 1.92526 119.881 1.37124 120.074 0.835659C120.121 0.704907 120.323 0.549848 120.458 0.545657C122.047 0.490339 123.636 0.472738 125.224 0.41742C125.628 0.403171 125.772 0.541467 125.752 0.938753C125.736 1.25893 125.76 1.58078 125.776 1.90179C125.791 2.17168 125.674 2.28483 125.411 2.27729C125.176 2.27142 124.941 2.28818 124.706 2.28818C124.465 2.28818 124.365 2.4072 124.347 2.64608C124.201 4.70794 124.047 6.76813 123.899 8.82999C123.696 11.6437 123.497 14.4565 123.298 17.2702C123.263 17.758 123.239 18.2458 123.208 18.7336C123.192 18.97 123.237 19.1276 123.524 19.167C123.626 19.1812 123.776 19.3773 123.779 19.4939C123.789 19.8551 123.739 20.218 123.711 20.5801C123.693 20.8173 123.576 20.9212 123.331 20.9087C121.813 20.8341 120.295 20.7645 118.776 20.7C118.527 20.6899 118.428 20.5717 118.434 20.3345C118.439 20.0688 118.442 19.804 118.451 19.5383C118.465 19.117 118.687 18.9138 119.118 18.9289C119.367 18.9382 119.616 18.9365 119.863 18.9608C120.239 18.9977 120.452 18.8652 120.438 18.4562C120.435 18.359 120.452 18.2609 120.457 18.1637C120.635 14.5227 120.812 10.8818 120.994 7.24085C121.019 6.73879 121.075 6.23841 121.109 5.7372C121.122 5.55196 121.111 5.36589 121.111 5.17982C121.068 5.17395 121.025 5.16725 120.982 5.16138C120.58 6.44041 120.178 7.7186 119.776 8.99762C119.431 10.099 119.087 11.2003 118.742 12.3016C118.571 12.8456 118.386 13.3862 118.238 13.936C118.195 14.0978 118.22 14.3023 118.278 14.4632C118.381 14.7524 118.274 14.8748 118.015 14.9552C117.449 15.1321 116.873 15.2863 116.33 15.5202C115.989 15.6668 115.867 15.5202 115.773 15.2645C115.515 14.5747 115.273 13.8782 115.022 13.1859C114.523 11.8147 114.02 10.4443 113.52 9.07306C113.378 8.68499 113.24 8.29692 113.099 7.90802C113.061 7.90634 113.023 7.90467 112.985 7.90299C112.963 8.0614 112.913 8.22233 112.925 8.37823C113.024 9.71508 113.129 11.0511 113.243 12.3863C113.379 13.9863 113.528 15.5847 113.665 17.1839C113.735 18.0036 113.728 18.0036 114.522 18.0757C114.618 18.0841 114.714 18.1042 114.811 18.105C115.196 18.1075 115.357 18.2743 115.298 18.6825C115.247 19.0404 115.237 19.4075 115.24 19.7696C115.244 20.1359 115.102 20.2457 114.739 20.2214C112.726 20.0864 110.712 19.9699 108.698 19.8551C107.539 19.7889 106.38 19.7319 105.219 19.6858C104.868 19.6715 104.721 19.5425 104.765 19.1728C104.809 18.799 104.811 18.4202 104.831 18.0438C104.849 17.7027 105.001 17.5275 105.362 17.582C105.553 17.6114 105.747 17.6206 105.94 17.6281C106.331 17.6424 106.423 17.5451 106.324 17.1562C106.159 16.5092 105.966 15.8688 105.786 15.226C105.712 14.9578 105.649 14.6862 105.567 14.4205C105.489 14.1674 105.336 14.0433 105.043 14.0634C103.761 14.1506 102.478 14.226 101.194 14.2855C100.865 14.3006 100.768 14.532 100.69 14.7583C100.301 15.8889 99.9332 17.0263 99.5566 18.1603C99.4662 18.4336 99.6321 18.4914 99.8337 18.4797C100.221 18.4579 100.345 18.6498 100.334 19.0136C100.322 19.4042 100.336 19.7956 100.351 20.187C100.361 20.4535 100.238 20.5759 99.9854 20.5826C98.6177 20.6195 97.25 20.6547 95.8823 20.6933C95.6011 20.7008 95.4758 20.5533 95.4684 20.2876C95.4568 19.8551 95.4568 19.4218 95.4418 18.9884C95.4327 18.7211 95.5654 18.6046 95.8109 18.5886C95.9627 18.5786 96.1145 18.5752 96.2663 18.571C96.9307 18.5534 96.958 18.5484 97.1612 17.934C97.7294 16.2183 98.2801 14.4976 98.85 12.7819C99.4198 11.067 100.006 9.35803 100.58 7.64484C101.123 6.02301 101.674 4.40369 102.183 2.77096C102.261 2.52035 102.173 2.19431 102.096 1.92275C101.957 1.43494 102.006 1.3243 102.483 1.14829C103.18 0.89014 103.872 0.613548 104.561 0.331089C104.979 0.159267 105.076 0.219615 105.183 0.669704C105.451 1.79367 105.743 2.91093 106.019 4.03239C106.281 5.1002 106.53 6.17136 106.793 7.23917C107.056 8.30698 107.33 9.37228 107.596 10.4393C107.653 10.6689 107.693 10.9036 107.749 11.1332C107.827 11.4551 107.991 11.6303 108.364 11.6001C109.239 11.528 109.237 11.466 109.268 12.45C109.278 12.7852 109.278 13.1205 109.298 13.4549C109.314 13.7173 109.219 13.8522 108.947 13.8438C108.583 13.8321 108.493 14.0182 108.574 14.3534C108.828 15.3944 109.063 16.4413 109.334 17.4772C109.369 17.6105 109.565 17.7723 109.705 17.7941C110.195 17.8703 110.695 17.8871 111.19 17.9349C111.496 17.9642 111.589 17.8075 111.554 17.5326C111.384 16.1898 111.215 14.8471 111.04 13.5052C110.937 12.7165 110.816 11.9303 110.719 11.1416C110.46 9.02277 110.211 6.90223 109.956 4.78337C109.939 4.64508 109.911 4.50762 109.887 4.37016C109.832 4.04831 109.649 3.94522 109.326 3.97372C108.21 4.07346 108.209 4.06507 108.153 2.95284C108.111 2.10798 108.111 2.12223 108.938 2.07278C110.814 1.95963 112.689 1.8339 114.564 1.7065C115.156 1.66627 115.191 1.68723 115.216 2.30159C115.228 2.5807 115.226 2.86064 115.252 3.13891C115.283 3.48172 115.183 3.67701 114.803 3.65438C114.688 3.64767 114.569 3.70048 114.37 3.74322L114.374 3.7449ZM103.504 7.01203C103.465 6.99946 103.427 6.98689 103.388 6.97431C103.306 7.11093 103.201 7.23917 103.149 7.38669C102.937 7.98932 102.74 8.59698 102.538 9.20381C102.287 9.9548 102.027 10.7033 101.79 11.4593C101.647 11.9194 101.719 12.0041 102.207 11.9773C102.91 11.9387 103.613 11.8842 104.314 11.8314C104.773 11.7971 104.832 11.7015 104.706 11.2472C104.404 10.1627 104.108 9.07557 103.805 7.991C103.713 7.66244 103.605 7.33807 103.504 7.01203Z" fill="#FDFDFC"/>
<path d="M134.577 9.58936C134.93 9.69246 135.211 9.79052 135.501 9.85506C136.349 10.0428 137.198 10.2322 138.051 10.3898C138.428 10.4594 138.591 10.6186 138.506 11.0117C138.421 11.4065 138.358 11.8063 138.274 12.2011C138.259 12.2731 138.19 12.3905 138.146 12.3896C137.757 12.3846 137.802 12.6696 137.783 12.916C137.637 14.7667 137.488 16.6165 137.349 18.4671C137.329 18.7311 137.199 18.8124 136.961 18.8577C135.446 19.146 133.931 19.4436 132.418 19.747C131.161 19.9993 129.906 20.2633 128.651 20.5248C127.949 20.6715 127.249 20.824 126.548 20.9766C126.168 21.0595 125.987 20.9254 125.951 20.5172C125.919 20.1736 125.809 19.8375 125.731 19.498C125.676 19.26 125.764 19.1242 126.003 19.0781C126.097 19.0597 126.186 19.0161 126.279 18.9901C126.741 18.861 126.971 18.5465 126.971 18.0464C126.965 14.0525 126.959 10.0587 126.953 6.06492C126.953 5.93919 126.953 5.81347 126.947 5.68775C126.933 5.4363 126.834 5.26783 126.554 5.37595C126.238 5.49916 126.109 5.31477 126.048 5.06416C125.93 4.57719 125.842 4.08352 125.732 3.59487C125.669 3.31493 125.786 3.1716 126.044 3.11125C126.487 3.00816 126.928 2.8925 127.374 2.80365C129.064 2.46839 130.758 2.14738 132.447 1.80205C132.565 1.77775 132.76 1.56234 132.739 1.50199C132.619 1.16757 132.851 1.07118 133.053 0.970604C133.683 0.657972 134.32 0.362941 134.953 0.0553374C135.214 -0.0712242 135.38 0.0276782 135.485 0.269067C136.184 1.88838 136.829 3.53369 137.599 5.1178C137.974 5.88974 137.845 6.33899 137.232 6.87541C136.42 7.58449 135.702 8.40337 134.947 9.17699C134.835 9.29182 134.732 9.41754 134.579 9.5902L134.577 9.58936ZM130.011 14.4515H129.92C129.92 15.5545 129.917 16.6575 129.922 17.7605C129.924 18.1587 130.026 18.2215 130.404 18.1369C131.023 17.9969 131.645 17.8745 132.264 17.7404C132.939 17.5938 133.615 17.4605 134.281 17.2786C134.419 17.2409 134.592 17.028 134.606 16.8813C134.763 15.298 134.888 13.7123 135.029 12.1281C135.051 11.8893 134.971 11.7602 134.738 11.7116C134.305 11.6211 133.877 11.5163 133.445 11.4241C132.462 11.2129 131.475 11.0151 130.493 10.7921C130.096 10.7016 130.005 10.8734 130.007 11.2271C130.016 12.3025 130.011 13.377 130.011 14.4523L130.011 14.4515ZM130.053 6.62229C130.047 6.62229 130.041 6.62229 130.035 6.62229C130.035 7.15201 130.016 7.68256 130.045 8.2106C130.055 8.37571 130.165 8.64308 130.28 8.67577C130.809 8.82329 131.353 8.91884 131.897 8.99762C132.021 9.01523 132.197 8.92554 132.295 8.82832C133.109 8.01531 133.919 7.19643 134.707 6.35743C134.811 6.24596 134.867 5.97859 134.81 5.83945C134.584 5.28795 134.293 4.76494 134.052 4.22014C133.923 3.93013 133.739 3.88487 133.457 3.9469C132.448 4.16985 131.439 4.38609 130.425 4.58306C130.15 4.6367 130.05 4.77248 130.052 5.03315C130.055 5.56286 130.052 6.09258 130.052 6.62229H130.053Z" fill="#FDFDFC"/>
<path d="M87.6277 14.915C87.4834 11.202 87.3374 7.48978 87.1989 3.77675C87.1881 3.48843 87.0836 3.37611 86.7974 3.39455C86.2185 3.43227 85.6371 3.444 85.0581 3.48256C84.7778 3.501 84.6567 3.39874 84.6384 3.11126C84.6127 2.69386 84.5696 2.27562 84.5057 1.86157C84.4493 1.49362 84.5638 1.3 84.9462 1.28491C85.1253 1.27821 85.302 1.23546 85.4811 1.22289C87.9072 1.04855 90.3333 0.8826 92.7585 0.698205C93.1965 0.664679 93.5432 0.770287 93.8982 1.04604C95.1448 2.01411 96.4246 2.9386 97.6746 3.90164C97.8048 4.00222 97.896 4.25283 97.8852 4.42549C97.7981 5.77659 97.6878 7.12686 97.5734 8.47629C97.4655 9.74191 97.342 11.0067 97.2308 12.2723C97.1462 13.232 97.0807 14.1934 96.9803 15.1514C96.9654 15.2964 96.8285 15.4498 96.7116 15.5579C96.5233 15.7322 96.272 15.8445 96.1028 16.0331C94.9532 17.3146 93.8152 18.6071 92.6806 19.902C92.4915 20.1183 92.3123 20.2633 92.0096 20.12C91.9034 20.0697 91.7657 20.0839 91.6413 20.0781C89.9294 19.9959 88.2183 19.9054 86.5055 19.8417C86.1405 19.8283 86.0078 19.7093 86.0518 19.3447C86.0999 18.9432 86.1215 18.5375 86.1472 18.1335C86.1663 17.8234 86.3114 17.6994 86.6258 17.7002C87.6941 17.7044 87.6891 17.6968 87.6675 16.5905C87.6567 16.0323 87.6659 15.4732 87.6659 14.9142C87.6534 14.9142 87.641 14.9142 87.6285 14.9142L87.6277 14.915ZM90.8782 17.6608C90.9172 17.6784 90.9554 17.696 90.9944 17.7145C91.1113 17.6055 91.2415 17.5083 91.3427 17.3867C92.0792 16.5008 92.8033 15.6048 93.5465 14.7239C93.8476 14.3669 93.9886 13.978 94.0027 13.5061C94.0914 10.6454 94.1885 7.78482 94.3087 4.92503C94.3286 4.44476 94.1702 4.14889 93.831 3.81363C93.1086 3.1012 92.3148 2.83047 91.3253 3.02576C90.8202 3.12551 90.7513 3.14562 90.7546 3.68707C90.7853 8.19719 90.8177 12.7081 90.85 17.2183C90.8509 17.3658 90.8674 17.5133 90.8774 17.6608H90.8782Z" fill="#FDFDFC"/>
<path d="M139.125 6.71782C139.861 6.20571 140.594 5.69025 141.335 5.18651C141.4 5.14209 141.549 5.13371 141.605 5.17813C142.274 5.70533 142.933 6.24594 143.709 6.8754C142.93 6.93323 143.07 7.43277 143.043 7.84598C142.868 10.5775 142.703 13.3099 142.509 16.0398C142.479 16.4622 142.587 16.6039 143.002 16.6441C143.867 16.7288 144.729 16.857 145.587 16.9961C145.906 17.0481 146.052 16.9517 146.105 16.6416C146.215 16.0096 146.346 15.3818 146.449 14.7482C146.786 12.6704 147.111 10.5901 147.45 8.51232C147.654 7.26011 147.89 6.01294 148.084 4.75905C148.181 4.13379 148.145 4.10948 147.518 4.1472C145.228 4.28633 142.94 4.44055 140.649 4.57717C139.952 4.61908 139.949 4.60148 139.919 3.87899C139.902 3.45991 139.905 3.04 139.878 2.62259C139.855 2.27057 139.984 2.12389 140.345 2.10629C141.463 2.05181 142.579 1.96632 143.696 1.89424C146.247 1.72996 148.799 1.56568 151.35 1.40475C151.901 1.37039 151.913 1.38715 151.936 1.92776C151.956 2.44407 151.968 2.96121 151.999 3.47668C152.015 3.74488 151.953 3.91419 151.648 3.90581C151.392 3.89827 151.295 4.04495 151.252 4.28969C150.868 6.48649 150.481 8.6833 150.083 10.8776C149.664 13.1951 149.228 15.5101 148.806 17.8276C148.671 18.5677 148.549 19.3111 148.43 20.0546C148.372 20.4217 148.209 20.5809 147.814 20.5156C147.174 20.4108 146.528 20.3395 145.882 20.275C145.616 20.2482 145.551 20.1023 145.59 19.8802C145.664 19.462 145.459 19.3757 145.088 19.3329C143.29 19.1267 141.498 18.882 139.701 18.6649C139.41 18.6297 139.424 18.4503 139.431 18.2509C139.484 16.8134 139.547 15.3751 139.592 13.9377C139.661 11.7174 139.716 9.49715 139.784 7.27687C139.793 7.00783 139.689 6.88965 139.433 6.8754C139.341 6.87037 139.25 6.84103 139.159 6.82259C139.148 6.78655 139.137 6.75135 139.126 6.71531L139.125 6.71782Z" fill="#FDFDFC"/>
<path d="M49.3234 6.49242C48.9253 7.5267 48.523 8.55931 48.1307 9.59611C47.648 10.8693 47.176 12.1466 46.6942 13.4198C46.5954 13.6796 46.447 13.8011 46.1525 13.6302C45.9037 13.486 45.6308 13.3645 45.353 13.2949C44.7176 13.1348 44.4937 12.6336 44.2648 12.098C43.8932 11.2314 43.4843 10.3806 43.0903 9.52403C43.0737 9.48715 43.0438 9.45697 42.9509 9.32538C42.9277 9.56091 42.902 9.68747 42.9037 9.81319C42.9435 12.621 42.9849 15.4288 43.0306 18.2358C43.0389 18.7505 43.106 18.8041 43.6319 18.7588C44.458 18.6884 44.4729 18.4915 44.5451 19.5333C44.5584 19.7286 44.5733 19.923 44.5874 20.1183C44.6297 20.6891 44.6106 20.7251 44.0624 20.7587C42.7934 20.8358 41.5235 20.8978 40.2545 20.9741C39.994 20.99 39.868 20.8919 39.8522 20.6262C39.829 20.2357 39.7991 19.8459 39.761 19.457C39.7311 19.1561 39.829 18.9633 40.1491 18.9407C40.4635 18.9181 40.5605 18.7563 40.5431 18.4395C40.3457 14.7575 40.1566 11.0755 39.9716 7.3926C39.9318 6.59719 39.9086 5.80094 39.8987 5.00469C39.8945 4.6535 39.7742 4.46827 39.4101 4.52024C39.0626 4.57052 38.9423 4.41128 38.9357 4.07517C38.9282 3.71309 38.8735 3.35185 38.8494 2.98976C38.8121 2.43155 38.8602 2.37288 39.4275 2.32343C39.8539 2.28655 40.2827 2.27482 40.7098 2.24213C41.3709 2.191 42.0319 2.13484 42.6922 2.0745C42.9203 2.05354 43.1177 2.06779 43.1425 2.35947C43.233 3.39878 43.743 4.28974 44.1329 5.22261C44.6198 6.38932 45.1141 7.55268 45.6134 8.71437C45.6856 8.88116 45.8033 9.02868 45.956 9.27426C46.2487 8.41263 46.5059 7.66835 46.7547 6.92071C47.1719 5.66767 47.5841 4.41295 47.9988 3.15907C48.2037 2.53883 48.4194 1.92111 48.611 1.29669C48.7246 0.926222 48.8672 0.739314 49.3309 0.769487C50.765 0.863361 52.2032 0.875095 53.6398 0.927899C54.3133 0.953043 54.3274 0.97735 54.2884 1.66464C54.2677 2.02756 54.2378 2.38964 54.227 2.75256C54.2179 3.04173 54.0744 3.14985 53.804 3.12806C53.6248 3.11381 53.4457 3.10543 53.2657 3.09537C52.7282 3.0652 52.6892 3.09956 52.6826 3.62676C52.6735 4.3811 52.6735 5.13544 52.6602 5.88978C52.5922 9.7168 52.52 13.5438 52.452 17.3708C52.4413 18.0011 52.4653 18.0213 53.0882 18.0707C53.1429 18.0749 53.1985 18.0782 53.2541 18.0816C54.5032 18.1621 54.5107 18.1637 54.6907 16.9308C54.8035 16.158 54.8847 15.3802 54.9876 14.6058C55.0307 14.2806 54.9635 14.0752 54.5787 14.1381C54.31 14.1825 54.1839 14.0157 54.1582 13.7869C54.1026 13.2873 54.0694 12.7861 54.0354 12.2841C54.018 12.0259 54.1806 11.9656 54.4045 11.9446C55.336 11.8575 55.3492 11.8541 55.4794 10.9321C55.7847 8.77807 56.0766 6.62149 56.3744 4.46576C56.5361 3.2915 56.6979 2.1164 56.8621 0.942147C56.8795 0.8181 56.916 0.696568 56.9434 0.574197C57.0031 0.306825 57.1358 0.232229 57.422 0.286709C58.1402 0.425005 58.8643 0.53648 59.5909 0.616943C59.9401 0.655498 60.0504 0.797984 59.9957 1.12989C59.9044 1.67972 59.8057 2.22956 59.7502 2.78358C59.7369 2.91517 59.8771 3.06603 59.9567 3.20349C60.0919 3.43818 60.2636 3.65526 60.3697 3.90251C61.4729 6.46811 62.5619 9.03957 63.6626 11.6052C64.4572 13.4558 65.2675 15.2998 66.0613 17.1512C66.1608 17.3834 66.2761 17.5133 66.5448 17.5158C66.6377 17.5167 66.792 17.6483 66.8111 17.7421C66.8907 18.1235 66.9305 18.5141 66.9828 18.9013C67.0159 19.1444 66.9114 19.2567 66.6668 19.2818C65.2791 19.426 63.8915 19.5735 62.5063 19.7353C62.1646 19.7755 61.9846 19.6892 61.9647 19.3145C61.949 19.0229 61.8851 18.7337 61.8428 18.4437C61.7972 18.1319 61.9175 17.9701 62.2426 17.9592C62.4259 17.9525 62.6084 17.9022 62.8638 17.8595C62.6424 17.318 62.4566 16.8436 62.255 16.376C61.8926 15.5336 61.5326 14.6904 61.1419 13.8615C61.0764 13.7232 60.8591 13.5623 60.7206 13.5706C59.8663 13.6176 59.0111 13.6888 58.1635 13.807C58.01 13.828 57.8035 14.0853 57.7712 14.2621C57.5489 15.4682 57.3664 16.6827 57.1698 17.8939C57.1283 18.152 57.2693 18.2693 57.4933 18.2719C57.8508 18.2769 57.9329 18.4688 57.9122 18.7873C57.8848 19.2056 57.8674 19.6255 57.8748 20.0437C57.8815 20.4066 57.704 20.4988 57.3838 20.4829C56.3072 20.4293 55.2298 20.3932 54.1532 20.3388C52.0688 20.2323 49.9861 20.1158 47.9018 20.0077C47.3187 19.9775 47.3071 19.9691 47.3461 19.3657C47.3701 18.9893 47.3975 18.6122 47.3992 18.2358C47.4008 17.8796 47.5344 17.7262 47.9026 17.7757C48.2991 17.8293 48.7022 17.836 49.1003 17.8813C49.4454 17.9198 49.583 17.7698 49.5772 17.4312C49.5656 16.6911 49.5631 15.9502 49.5582 15.2101C49.5407 12.4995 49.5242 9.78972 49.5043 7.07913C49.5026 6.88132 49.4711 6.68268 49.4537 6.48487C49.4097 6.48655 49.3657 6.48823 49.3218 6.4899L49.3234 6.49242ZM58.6835 11.5574C58.9987 11.5322 59.3139 11.5071 59.6299 11.482C60.0272 11.4501 60.0952 11.3487 59.9418 10.9858C59.6556 10.3111 59.3661 9.63802 59.0651 8.97001C59.0228 8.87613 58.9025 8.81914 58.8179 8.74454C58.7631 8.83087 58.6736 8.91133 58.6586 9.00437C58.5367 9.72938 58.4339 10.4577 58.3153 11.1836C58.2638 11.497 58.4098 11.5884 58.6852 11.5566L58.6835 11.5574Z" fill="#FDFDFC"/>
<path d="M12.5461 11.7342C12.8953 11.4526 13.2652 11.1542 13.6849 10.8147C13.3299 10.8147 13.0106 10.8072 12.6929 10.8164C12.3512 10.8265 12.2376 10.6764 12.3512 10.368C12.4018 10.2314 12.4126 10.0805 12.4532 9.87683C13.1416 9.79385 13.8914 9.68489 14.6446 9.61868C15.0352 9.58431 15.1729 9.41082 15.1555 9.02778C15.0891 7.54843 15.0294 6.06909 14.9846 4.58974C14.973 4.2 14.8511 3.99549 14.4322 3.98124C14.3178 3.97705 14.1187 3.77505 14.1137 3.65687C14.0897 3.128 14.1237 2.59661 14.1336 2.06522C14.1394 1.77102 14.3443 1.78443 14.5425 1.78946C15.5238 1.81377 16.505 1.83556 17.4853 1.86574C17.9822 1.88082 18.479 1.92441 18.9767 1.93279C19.3084 1.93782 19.4552 2.06605 19.432 2.41389C19.4022 2.84554 19.3914 3.2797 19.393 3.71219C19.3947 3.99968 19.2802 4.11702 18.9957 4.10194C18.187 4.05835 18.2103 4.00219 18.221 4.93003C18.236 6.15961 18.2476 7.38835 18.2667 8.61792C18.2741 9.08477 18.3679 9.1535 18.8157 9.09651C19.9247 8.95486 21.0345 8.80902 22.1459 8.68665C22.4768 8.65061 22.612 8.51147 22.5963 8.18124C22.5133 6.43788 22.4345 4.69367 22.3591 2.94947C22.3483 2.70138 22.2371 2.59325 21.9925 2.62008C21.8689 2.63349 21.7445 2.63852 21.62 2.64606C20.857 2.68964 20.842 2.69048 20.8047 1.93949C20.7334 0.498703 20.5982 0.724167 21.9344 0.640351C23.2034 0.560727 24.4716 0.47272 25.7406 0.401477C26.2864 0.370465 26.3146 0.40483 26.3685 0.96807C26.3967 1.25975 26.3934 1.55478 26.4266 1.84562C26.4622 2.16412 26.3445 2.32756 26.0218 2.32085C25.6237 2.31247 25.5134 2.5195 25.52 2.90086C25.5988 7.3565 25.6685 11.8121 25.7307 16.2678C25.7365 16.6609 25.8874 16.8034 26.2582 16.7329C26.2715 16.7304 26.2856 16.7321 26.2997 16.7296C27.4302 16.5829 27.3016 16.6801 27.3439 17.6759C27.3812 18.5752 27.3754 18.5719 26.4871 18.628C25.1775 18.7118 23.8678 18.8007 22.5581 18.8887C22.0505 18.923 21.98 18.8644 21.9485 18.3514C21.9286 18.0304 21.9294 17.7086 21.902 17.3892C21.8763 17.0942 22.0049 17.0045 22.2828 16.9877C23.0309 16.9433 23.0359 16.9324 23.001 16.1747C22.9339 14.7096 22.8609 13.2454 22.7879 11.7811C22.7663 11.3428 22.6767 11.2833 22.2471 11.3327C21.1357 11.4601 20.0242 11.5917 18.9103 11.6881C18.5097 11.7224 18.3446 11.8742 18.3529 12.2823C18.3952 14.2797 18.4301 16.277 18.4541 18.2743C18.4583 18.602 18.6001 18.7076 18.9012 18.7328C19.9628 18.82 19.9645 18.8267 19.9421 19.8903C19.9181 21.0503 20.0159 20.8885 18.9252 20.8827C17.6952 20.8759 16.4652 20.855 15.2351 20.8357C14.7034 20.8273 14.6437 20.7603 14.6479 20.2222C14.6512 19.845 14.6603 19.4678 14.6645 19.0907C14.667 18.8032 14.7889 18.6339 15.0924 18.6641C15.4649 18.7009 15.571 18.5274 15.5536 18.1695C15.4615 16.2862 15.3811 14.4029 15.3081 12.5187C15.2965 12.2295 15.1928 12.108 14.9067 12.1466C14.4414 12.2094 13.9711 12.2429 13.5107 12.3318C13.0413 12.4223 12.7369 12.274 12.5478 11.7342H12.5461Z" fill="#FDFDFC"/>
<path d="M38.4475 19.286C38.4541 19.3975 38.4591 19.5089 38.4665 19.6204C38.508 20.2935 38.3944 20.4016 37.725 20.3245C35.9451 20.12 34.1643 19.9171 32.3844 19.7109C32.07 19.6749 31.7615 19.6053 31.7357 20.0965C31.7316 20.1778 31.5151 20.3035 31.389 20.3144C30.6326 20.3773 29.8728 20.41 29.1148 20.4577C28.8402 20.4753 28.7681 20.3329 28.7465 20.0797C28.5109 17.2568 28.2721 14.4347 28.0207 11.6135C27.8349 9.52902 27.6707 7.44034 27.4111 5.36506C27.2975 4.45566 27.295 3.5647 27.3389 2.66033C27.3539 2.34938 27.4526 2.24126 27.762 2.27227C29.7269 2.47007 31.6943 2.64022 33.6567 2.85395C34.7416 2.97213 34.7383 3.00314 34.7026 1.88923C34.686 1.36203 34.696 1.35952 35.2144 1.32683C35.8754 1.28576 36.5365 1.23547 37.1975 1.17931C37.6438 1.1416 37.7483 1.21032 37.7657 1.66628C37.8246 3.24285 37.8677 4.82026 37.9266 6.39683C38.0618 9.99671 38.2011 13.5958 38.3421 17.1948C38.3695 17.8921 38.4101 18.5895 38.4441 19.2868C38.4458 19.2868 38.4475 19.2868 38.4491 19.2868L38.4475 19.286ZM32.6042 5.21084V5.22928C32.1612 5.21001 31.7192 5.19576 31.2779 5.1681C30.9403 5.14714 30.8101 5.27371 30.8333 5.63327C31.0606 9.04625 31.2746 12.4601 31.4935 15.873C31.5135 16.1798 31.5508 16.4849 31.5715 16.7916C31.5931 17.1143 31.7507 17.2334 32.0758 17.2602C33.0802 17.3423 34.0822 17.4563 35.0841 17.5695C35.5727 17.6248 35.6457 17.5745 35.6199 17.064C35.5685 16.0465 35.5105 15.029 35.4474 14.0115C35.2832 11.3361 35.114 8.66069 34.9481 5.9853C34.9108 5.38267 34.9124 5.37512 34.2995 5.32399C33.7355 5.27706 33.169 5.24772 32.6042 5.21168V5.21084Z" fill="#FDFDFC"/>
<path d="M62.9883 4.64928C63.8434 4.21428 64.614 3.81867 65.3886 3.42893C67.3353 2.44996 69.2861 1.47938 71.2286 0.492028C71.5247 0.34116 71.6624 0.498733 71.8126 0.693185C72.5765 1.68137 73.3387 2.6704 74.1043 3.65774C74.2121 3.79604 74.3315 3.92511 74.5248 4.15142C74.5563 3.88404 74.5895 3.72982 74.5895 3.57477C74.5928 2.82043 74.5754 2.06525 74.5936 1.31174C74.5978 1.1483 74.7205 0.987378 74.7885 0.825614C74.9237 0.921164 75.0589 1.01755 75.1975 1.11562C75.2074 1.08293 75.2398 0.979834 75.2696 0.875903C75.3426 0.626133 75.336 0.288356 75.7565 0.618589C75.8461 0.688994 76.1704 0.494542 76.3611 0.378039C76.4914 0.298414 76.5768 0.144193 76.6821 0.0234985C76.7178 0.0410998 76.7535 0.0587011 76.79 0.0771405C76.8016 0.210407 76.824 0.343674 76.824 0.476103C76.824 2.75337 76.8206 5.0298 76.8165 7.30707C76.8157 7.85523 76.7452 7.92144 76.1894 7.94575C75.9962 7.95413 75.7971 7.9315 75.6105 7.97089C74.8516 8.1293 74.3655 7.81751 73.9268 7.18722C73.1247 6.03727 72.2389 4.94766 71.3854 3.83459C71.2411 3.64601 71.0984 3.43312 70.8098 3.58566C70.1023 3.95864 69.3956 4.3333 68.6906 4.71047C68.6325 4.74148 68.5911 4.8035 68.5106 4.88061C68.6126 5.00047 68.703 5.11781 68.8042 5.22342C70.3561 6.84944 71.9245 8.46122 73.4548 10.1082C73.9276 10.617 74.5596 10.5608 75.1203 10.7511C75.5101 10.8835 75.9249 10.9413 76.3321 11.0159C76.5834 11.062 76.6042 11.202 76.5428 11.4098C75.9796 13.3326 75.4172 15.2545 74.8599 17.1789C74.7438 17.5795 74.6301 17.9827 74.5555 18.3925C74.4966 18.7135 74.3431 18.8351 74.0263 18.8468C73.2674 18.8761 72.5084 18.9273 71.7504 18.9834C71.3439 19.0136 71.2784 19.1477 71.4476 19.5266C71.6923 20.0739 71.694 20.0781 71.1498 20.2759C70.6447 20.4603 70.133 20.6254 69.632 20.819C69.3707 20.9196 69.2604 20.7595 69.1866 20.5784C68.7055 19.4092 68.2361 18.235 67.7625 17.0624C67.3361 16.0063 66.9173 14.946 66.4777 13.895C66.2463 13.3418 66.2554 13.2563 66.7696 13.0032C67.1528 12.8146 67.541 12.6344 67.9308 12.4584C68.1656 12.3519 68.3223 12.3771 68.4443 12.6654C68.9527 13.8682 69.4951 15.0558 70.0152 16.2544C70.1487 16.562 70.342 16.7154 70.6854 16.681C71.125 16.6366 71.5695 16.6341 72.0075 16.5737C72.1418 16.5553 72.3368 16.4312 72.3699 16.3164C72.5723 15.6224 72.7589 14.9209 72.8933 14.211C72.9207 14.0643 72.7324 13.8405 72.5947 13.703C70.6132 11.7191 68.6242 9.74443 66.6361 7.76722C66.3209 7.45375 65.99 7.15453 65.6906 6.82681C65.4152 6.52675 65.1357 6.50244 64.8089 6.71785C64.6256 6.83854 64.4348 6.93409 64.2747 6.68265C63.8592 6.02889 63.447 5.37345 62.9883 4.64761V4.64928Z" fill="#FDFDFC"/>
<path d="M13.1985 3.39121C13.1338 4.64677 13.0608 5.90149 13.0102 7.15788C12.9969 7.48476 12.8791 7.60546 12.5573 7.58199C12.1169 7.55014 11.674 7.54092 11.2311 7.53673C10.9466 7.53421 10.8495 7.41855 10.8628 7.12603C10.9092 6.09342 10.9242 5.05914 10.9673 4.02653C10.9806 3.70384 10.881 3.55968 10.5451 3.58734C10.215 3.615 9.88158 3.62673 9.55064 3.61332C9.17076 3.59823 9.02644 3.75078 9.06045 4.13549C9.10773 4.66353 9.11187 5.19576 9.15418 5.72463C9.45443 9.49634 9.76049 13.2672 10.0641 17.0389C10.0682 17.0942 10.0715 17.1504 10.079 17.2057C10.2225 18.2919 10.1213 18.1972 11.0909 18.0975C11.4185 18.064 11.5819 18.1746 11.5927 18.5266C11.6068 18.9868 11.6449 19.4469 11.6881 19.9054C11.7113 20.1501 11.6101 20.2784 11.382 20.3153C11.1639 20.3505 10.9449 20.384 10.7251 20.4049C9.17076 20.5508 7.61642 20.6891 6.0629 20.8416C5.81241 20.8659 5.6457 20.8047 5.6175 20.5424C5.55778 19.9875 5.49972 19.4318 5.47649 18.8753C5.47235 18.7881 5.63906 18.6364 5.74772 18.6121C6.05626 18.5434 6.37559 18.5157 6.69244 18.4889C6.99352 18.4638 7.0972 18.307 7.06485 18.0154C6.96532 17.0993 6.87989 16.1823 6.77704 15.267C6.66755 14.2965 6.53236 13.3284 6.43034 12.357C6.16824 9.85842 5.93434 7.35652 5.65648 4.8605C5.51714 3.60997 5.56939 3.85471 4.52182 3.87147C4.16268 3.87734 3.80354 3.90584 3.44606 3.93433C2.94508 3.97456 2.88288 4.03575 2.95421 4.52607C3.03881 5.10524 3.15576 5.67937 3.26441 6.25435C3.36477 6.78825 3.47011 7.32132 3.58042 7.85355C3.63185 8.10332 3.53812 8.20474 3.29095 8.24162C2.79993 8.31454 2.31223 8.41344 1.8237 8.50564C1.37166 8.59113 1.27296 8.52827 1.18587 8.06728C1.10293 7.62892 1.02662 7.18973 0.946163 6.75054C0.649228 5.1044 0.348976 3.4591 0.0520408 1.81296C0.0246697 1.66209 -0.0134839 1.50536 0.00476347 1.357C0.0163755 1.25978 0.105124 1.11142 0.18309 1.09298C0.788572 0.95385 1.39737 0.829803 2.01032 0.734253C2.08911 0.721681 2.26412 0.888474 2.28071 0.990729C2.35453 1.44501 2.59341 1.56738 3.033 1.53972C5.76348 1.36874 8.49561 1.21703 11.2277 1.067C11.7378 1.03934 12.2504 1.05191 12.7614 1.03934C13.1122 1.03012 13.2491 1.18183 13.235 1.54643C13.2109 2.15996 13.2283 2.77516 13.2283 3.39037C13.2184 3.39037 13.2084 3.39037 13.1976 3.39037L13.1985 3.39121Z" fill="#FDFDFC"/>
</svg>
